<svg version="1.1" viewBox="0 0 364 517" xmlns="http://www.w3.org/2000/svg">
  <g fill="none" fill-rule="evenodd">
    <g fill="currentColor" fill-rule="nonzero">
      <path d="m249.12 0h-9.562-200.81c-21.038 0-38.25 17.212-38.25 38.25v439.88c0 21.037 17.212 38.25 38.25 38.25h286.88c21.037 0 38.25-17.213 38.25-38.25v-334.69-9.562l-114.75-133.88zm0 28.688 89.888 105.19h-70.763c-9.562 0-19.125-9.562-19.125-19.125v-86.063zm95.625 449.44c0 9.562-7.65 19.125-19.125 19.125h-286.88c-9.562 0-19.125-7.65-19.125-19.125v-439.88c0-9.562 7.65-19.125 19.125-19.125h191.25v95.625c0 21.038 17.213 38.25 38.25 38.25h76.5v325.12zm-153.13-60.625v-201.25l61.2 61.2 15.3-15.3-86.062-84.15-86.062 86.062 15.3 15.3 61.2-63.112v201.25h19.124z"/>
    </g>
  </g>
</svg>
